<svg style="display: none;" aria-hidden="true" xmlns="http://www.w3.org/2000/svg" xmlns:xlink="http://www.w3.org/1999/xlink">

<symbol viewBox="0 0 22 8" fill="none" id="svg-Arrow"><path d="M21.3204 4.35355C21.5156 4.15829 21.5156 3.84171 21.3204 3.64645L18.1384 0.464466C17.9431 0.269204 17.6265 0.269204 17.4313 0.464466C17.236 0.659728 17.236 0.976311 17.4313 1.17157L20.2597 4L17.4313 6.82843C17.236 7.02369 17.236 7.34027 17.4313 7.53553C17.6265 7.7308 17.9431 7.7308 18.1384 7.53553L21.3204 4.35355ZM0.966797 4.5H20.9668V3.5H0.966797V4.5Z" fill="#0061BF"/></symbol>
<symbol viewBox="0 0 177 177" fill="none" id="svg-Circles">
<g opacity=".3" style="opacity: var(--primary-opacity)"><g filter="url(#bfilter0_b_349_28)">
<circle cx="88.5" cy="88.5" r="88.5" fill="#0061BF" style="fill: var(--primary-color); fill-opacity: var(--secondary-opacity)" fill-opacity=".3" /></g>
<circle cx="88.5" cy="88.5" r="70.8" fill="#0061BF" style="fill: var(--secondary-color); fill-opacity: var(--third-opacity)"/>
<g filter="url(#bfilter1_b_349_28)">
<circle cx="88.5" cy="88.5" r="44.25" fill="#fff" style="fill: var(--third-color); fill-opacity: var(--secondary-opacity)" fill-opacity=".3"/></g>
<circle cx="88.5" cy="88.5" r="17.2" stroke="#0061BF" style="stroke: var(--primary-color); fill: var(--fourth-color); fill-opacity: var(--third-opacity)"/></g>
<defs><filter id="bfilter0_b_349_28" x="-12" y="-12" width="201" height="201" filterUnits="userSpaceOnUse" color-interpolation-filters="sRGB"><feFlood flood-opacity="0" result="BackgroundImageFix"/><feGaussianBlur in="BackgroundImage" stdDeviation="6"/><feComposite in2="SourceAlpha" operator="in" result="effect1_backgroundBlur_349_28"/><feBlend in="SourceGraphic" in2="effect1_backgroundBlur_349_28" result="shape"/></filter><filter id="bfilter1_b_349_28" x="32.25" y="32.25" width="112.5" height="112.5" filterUnits="userSpaceOnUse" color-interpolation-filters="sRGB"><feFlood flood-opacity="0" result="BackgroundImageFix"/><feGaussianBlur in="BackgroundImage" stdDeviation="6"/><feComposite in2="SourceAlpha" operator="in" result="effect1_backgroundBlur_349_28"/><feBlend in="SourceGraphic" in2="effect1_backgroundBlur_349_28" result="shape"/></filter></defs></symbol>
<symbol viewBox="0 0 40 40" fill="none" id="svg-circles_blue"><g filter="url(#cfilter0_b_116_579)"><circle cx="20" cy="20" r="20" fill="#0061BF" fill-opacity=".3"/></g><circle cx="20" cy="20" r="16" fill="#0061BF"/><g filter="url(#cfilter1_b_116_579)"><circle cx="20" cy="20" r="10" fill="#fff" fill-opacity=".3"/></g><circle cx="20" cy="20" r="3.5" stroke="#0061BF"/><defs><filter id="cfilter0_b_116_579" x="-12" y="-12" width="64" height="64" filterUnits="userSpaceOnUse" color-interpolation-filters="sRGB"><feFlood flood-opacity="0" result="BackgroundImageFix"/><feGaussianBlur in="BackgroundImage" stdDeviation="6"/><feComposite in2="SourceAlpha" operator="in" result="effect1_backgroundBlur_116_579"/><feBlend in="SourceGraphic" in2="effect1_backgroundBlur_116_579" result="shape"/></filter><filter id="cfilter1_b_116_579" x="-2" y="-2" width="44" height="44" filterUnits="userSpaceOnUse" color-interpolation-filters="sRGB"><feFlood flood-opacity="0" result="BackgroundImageFix"/><feGaussianBlur in="BackgroundImage" stdDeviation="6"/><feComposite in2="SourceAlpha" operator="in" result="effect1_backgroundBlur_116_579"/><feBlend in="SourceGraphic" in2="effect1_backgroundBlur_116_579" result="shape"/></filter></defs></symbol>
<symbol viewBox="0 0 22 22" fill="none" id="svg-facebook"><path d="M20 0H2C0.895 0 0 0.895 0 2V20C0 21.105 0.895 22 2 22H12V13H9V10H12V8.389C12 5.339 13.486 4 16.021 4C17.235 4 17.877 4.09 18.181 4.131V7H16.452C15.376 7 15 7.568 15 8.718V10H18.154L17.726 13H15V22H20C21.105 22 22 21.105 22 20V2C22 0.895 21.104 0 20 0Z" fill="#F4F4F4"/></symbol>
<symbol viewBox="0 0 24 24" fill="none" id="svg-instagram"><path d="M6.99805 0C3.13905 0 0 3.14195 0 7.00195V17.002C0 20.861 3.14195 24 7.00195 24H17.002C20.861 24 24 20.858 24 16.998V6.99805C24 3.13905 20.858 0 16.998 0H6.99805ZM19 4C19.552 4 20 4.448 20 5C20 5.552 19.552 6 19 6C18.448 6 18 5.552 18 5C18 4.448 18.448 4 19 4ZM12 6C15.309 6 18 8.691 18 12C18 15.309 15.309 18 12 18C8.691 18 6 15.309 6 12C6 8.691 8.691 6 12 6ZM12 8C10.9391 8 9.92172 8.42143 9.17157 9.17157C8.42143 9.92172 8 10.9391 8 12C8 13.0609 8.42143 14.0783 9.17157 14.8284C9.92172 15.5786 10.9391 16 12 16C13.0609 16 14.0783 15.5786 14.8284 14.8284C15.5786 14.0783 16 13.0609 16 12C16 10.9391 15.5786 9.92172 14.8284 9.17157C14.0783 8.42143 13.0609 8 12 8Z" fill="#F4F4F4"/></symbol></svg>

