<svg width="672" height="91" viewBox="0 0 672 91" fill="none" xmlns="http://www.w3.org/2000/svg">
<path opacity="0.3" fill-rule="evenodd" clip-rule="evenodd" d="M452 10C452 14.9706 447.971 19 443 19C438.029 19 434 14.9706 434 10C434 5.02944 438.029 1 443 1C447.971 1 452 5.02944 452 10ZM453 10C453 15.5228 448.523 20 443 20C437.477 20 433 15.5228 433 10C433 4.47715 437.477 0 443 0C448.523 0 453 4.47715 453 10ZM433 10H33V40H32H1L1 91H0V40V39H32V9H33L433 8.99996V10ZM673 9.99998L473 10V20H472V0H473V9L673 8.99998V9.99998Z" fill="#0061BF"/>
</svg>
